<mxfile host="app.diagrams.net" modified="2022-11-21T11:15:25.710Z" agent="5.0 (Windows NT 10.0; Win64; x64) AppleWebKit/537.36 (KHTML, like Gecko) Chrome/105.0.0.0 Safari/537.36 OPR/91.0.4516.106" etag="QnT4auROXouGeeza2Jth" version="20.5.3" type="github">
  <diagram id="bphvBiVoFfe5jo27HtMb" name="Page-1">
    <mxGraphModel dx="997" dy="619" grid="1" gridSize="10" guides="1" tooltips="1" connect="1" arrows="1" fold="1" page="1" pageScale="1" pageWidth="850" pageHeight="1100" math="0" shadow="0">
      <root>
        <mxCell id="0" />
        <mxCell id="1" parent="0" />
        <mxCell id="QZI1ip76G4jCks829j6q-7" style="edgeStyle=orthogonalEdgeStyle;rounded=0;orthogonalLoop=1;jettySize=auto;html=1;entryX=0.5;entryY=0;entryDx=0;entryDy=0;" edge="1" parent="1" source="QZI1ip76G4jCks829j6q-1" target="QZI1ip76G4jCks829j6q-4">
          <mxGeometry relative="1" as="geometry">
            <Array as="points">
              <mxPoint x="440" y="250" />
              <mxPoint x="480" y="250" />
            </Array>
          </mxGeometry>
        </mxCell>
        <mxCell id="QZI1ip76G4jCks829j6q-8" style="edgeStyle=orthogonalEdgeStyle;rounded=0;orthogonalLoop=1;jettySize=auto;html=1;entryX=0.5;entryY=0;entryDx=0;entryDy=0;exitX=0.5;exitY=1;exitDx=0;exitDy=0;" edge="1" parent="1" source="QZI1ip76G4jCks829j6q-1" target="QZI1ip76G4jCks829j6q-3">
          <mxGeometry relative="1" as="geometry">
            <mxPoint x="440" y="250" as="sourcePoint" />
            <Array as="points">
              <mxPoint x="440" y="250" />
              <mxPoint x="300" y="250" />
            </Array>
          </mxGeometry>
        </mxCell>
        <mxCell id="QZI1ip76G4jCks829j6q-9" style="edgeStyle=orthogonalEdgeStyle;rounded=0;orthogonalLoop=1;jettySize=auto;html=1;exitX=0.5;exitY=1;exitDx=0;exitDy=0;" edge="1" parent="1" source="QZI1ip76G4jCks829j6q-1" target="QZI1ip76G4jCks829j6q-2">
          <mxGeometry relative="1" as="geometry">
            <mxPoint x="440" y="250" as="sourcePoint" />
            <Array as="points">
              <mxPoint x="440" y="250" />
              <mxPoint x="130" y="250" />
            </Array>
          </mxGeometry>
        </mxCell>
        <mxCell id="QZI1ip76G4jCks829j6q-56" style="edgeStyle=orthogonalEdgeStyle;rounded=0;orthogonalLoop=1;jettySize=auto;html=1;entryX=0.5;entryY=0;entryDx=0;entryDy=0;" edge="1" parent="1" source="QZI1ip76G4jCks829j6q-1" target="QZI1ip76G4jCks829j6q-5">
          <mxGeometry relative="1" as="geometry">
            <Array as="points">
              <mxPoint x="440" y="250" />
              <mxPoint x="685" y="250" />
            </Array>
          </mxGeometry>
        </mxCell>
        <mxCell id="QZI1ip76G4jCks829j6q-57" style="edgeStyle=orthogonalEdgeStyle;rounded=0;orthogonalLoop=1;jettySize=auto;html=1;entryX=0.5;entryY=0;entryDx=0;entryDy=0;" edge="1" parent="1" source="QZI1ip76G4jCks829j6q-1" target="QZI1ip76G4jCks829j6q-44">
          <mxGeometry relative="1" as="geometry">
            <Array as="points">
              <mxPoint x="440" y="250" />
              <mxPoint x="885" y="250" />
            </Array>
          </mxGeometry>
        </mxCell>
        <mxCell id="QZI1ip76G4jCks829j6q-1" value="Quản lý nhà hàng" style="rounded=0;whiteSpace=wrap;html=1;" vertex="1" parent="1">
          <mxGeometry x="380" y="175" width="120" height="30" as="geometry" />
        </mxCell>
        <mxCell id="QZI1ip76G4jCks829j6q-26" style="edgeStyle=orthogonalEdgeStyle;rounded=0;orthogonalLoop=1;jettySize=auto;html=1;entryX=0;entryY=0.5;entryDx=0;entryDy=0;" edge="1" parent="1" source="QZI1ip76G4jCks829j6q-2" target="QZI1ip76G4jCks829j6q-14">
          <mxGeometry relative="1" as="geometry">
            <mxPoint x="60" y="560" as="targetPoint" />
            <Array as="points">
              <mxPoint x="40" y="300" />
              <mxPoint x="40" y="550" />
            </Array>
          </mxGeometry>
        </mxCell>
        <mxCell id="QZI1ip76G4jCks829j6q-30" style="edgeStyle=orthogonalEdgeStyle;rounded=0;orthogonalLoop=1;jettySize=auto;html=1;entryX=0;entryY=0.5;entryDx=0;entryDy=0;" edge="1" parent="1" source="QZI1ip76G4jCks829j6q-2" target="QZI1ip76G4jCks829j6q-15">
          <mxGeometry relative="1" as="geometry">
            <mxPoint x="40" y="500" as="targetPoint" />
            <Array as="points">
              <mxPoint x="40" y="300" />
              <mxPoint x="40" y="495" />
            </Array>
          </mxGeometry>
        </mxCell>
        <mxCell id="QZI1ip76G4jCks829j6q-31" style="edgeStyle=orthogonalEdgeStyle;rounded=0;orthogonalLoop=1;jettySize=auto;html=1;entryX=0;entryY=0.5;entryDx=0;entryDy=0;" edge="1" parent="1" source="QZI1ip76G4jCks829j6q-2" target="QZI1ip76G4jCks829j6q-21">
          <mxGeometry relative="1" as="geometry">
            <Array as="points">
              <mxPoint x="40" y="300" />
              <mxPoint x="40" y="435" />
            </Array>
          </mxGeometry>
        </mxCell>
        <mxCell id="QZI1ip76G4jCks829j6q-47" style="edgeStyle=orthogonalEdgeStyle;rounded=0;orthogonalLoop=1;jettySize=auto;html=1;entryX=0;entryY=0.5;entryDx=0;entryDy=0;" edge="1" parent="1" source="QZI1ip76G4jCks829j6q-2" target="QZI1ip76G4jCks829j6q-12">
          <mxGeometry relative="1" as="geometry">
            <Array as="points">
              <mxPoint x="40" y="300" />
              <mxPoint x="40" y="355" />
            </Array>
          </mxGeometry>
        </mxCell>
        <mxCell id="QZI1ip76G4jCks829j6q-2" value="Quản lý nhân viên" style="rounded=0;whiteSpace=wrap;html=1;" vertex="1" parent="1">
          <mxGeometry x="70" y="285" width="120" height="30" as="geometry" />
        </mxCell>
        <mxCell id="QZI1ip76G4jCks829j6q-36" style="edgeStyle=orthogonalEdgeStyle;rounded=0;orthogonalLoop=1;jettySize=auto;html=1;entryX=0;entryY=0.5;entryDx=0;entryDy=0;" edge="1" parent="1" source="QZI1ip76G4jCks829j6q-3" target="QZI1ip76G4jCks829j6q-35">
          <mxGeometry relative="1" as="geometry">
            <Array as="points">
              <mxPoint x="210" y="300" />
              <mxPoint x="210" y="495" />
            </Array>
          </mxGeometry>
        </mxCell>
        <mxCell id="QZI1ip76G4jCks829j6q-37" style="edgeStyle=orthogonalEdgeStyle;rounded=0;orthogonalLoop=1;jettySize=auto;html=1;entryX=0;entryY=0.5;entryDx=0;entryDy=0;" edge="1" parent="1" source="QZI1ip76G4jCks829j6q-3" target="QZI1ip76G4jCks829j6q-34">
          <mxGeometry relative="1" as="geometry">
            <Array as="points">
              <mxPoint x="210" y="300" />
              <mxPoint x="210" y="435" />
            </Array>
          </mxGeometry>
        </mxCell>
        <mxCell id="QZI1ip76G4jCks829j6q-38" style="edgeStyle=orthogonalEdgeStyle;rounded=0;orthogonalLoop=1;jettySize=auto;html=1;entryX=0;entryY=0.5;entryDx=0;entryDy=0;" edge="1" parent="1" source="QZI1ip76G4jCks829j6q-3" target="QZI1ip76G4jCks829j6q-33">
          <mxGeometry relative="1" as="geometry">
            <Array as="points">
              <mxPoint x="210" y="300" />
              <mxPoint x="210" y="365" />
            </Array>
          </mxGeometry>
        </mxCell>
        <mxCell id="QZI1ip76G4jCks829j6q-3" value="Quản lý bán hàng" style="rounded=0;whiteSpace=wrap;html=1;" vertex="1" parent="1">
          <mxGeometry x="240" y="285" width="120" height="30" as="geometry" />
        </mxCell>
        <mxCell id="QZI1ip76G4jCks829j6q-48" style="edgeStyle=orthogonalEdgeStyle;rounded=0;orthogonalLoop=1;jettySize=auto;html=1;entryX=0;entryY=0.5;entryDx=0;entryDy=0;" edge="1" parent="1" source="QZI1ip76G4jCks829j6q-4" target="QZI1ip76G4jCks829j6q-42">
          <mxGeometry relative="1" as="geometry">
            <Array as="points">
              <mxPoint x="410" y="300" />
              <mxPoint x="410" y="545" />
            </Array>
          </mxGeometry>
        </mxCell>
        <mxCell id="QZI1ip76G4jCks829j6q-49" style="edgeStyle=orthogonalEdgeStyle;rounded=0;orthogonalLoop=1;jettySize=auto;html=1;entryX=0;entryY=0.5;entryDx=0;entryDy=0;" edge="1" parent="1" source="QZI1ip76G4jCks829j6q-4" target="QZI1ip76G4jCks829j6q-41">
          <mxGeometry relative="1" as="geometry">
            <Array as="points">
              <mxPoint x="410" y="300" />
              <mxPoint x="410" y="495" />
            </Array>
          </mxGeometry>
        </mxCell>
        <mxCell id="QZI1ip76G4jCks829j6q-50" style="edgeStyle=orthogonalEdgeStyle;rounded=0;orthogonalLoop=1;jettySize=auto;html=1;entryX=0;entryY=0.5;entryDx=0;entryDy=0;" edge="1" parent="1" source="QZI1ip76G4jCks829j6q-4" target="QZI1ip76G4jCks829j6q-40">
          <mxGeometry relative="1" as="geometry">
            <Array as="points">
              <mxPoint x="410" y="300" />
              <mxPoint x="410" y="435" />
            </Array>
          </mxGeometry>
        </mxCell>
        <mxCell id="QZI1ip76G4jCks829j6q-51" style="edgeStyle=orthogonalEdgeStyle;rounded=0;orthogonalLoop=1;jettySize=auto;html=1;entryX=0;entryY=0.5;entryDx=0;entryDy=0;" edge="1" parent="1" source="QZI1ip76G4jCks829j6q-4" target="QZI1ip76G4jCks829j6q-39">
          <mxGeometry relative="1" as="geometry">
            <Array as="points">
              <mxPoint x="410" y="300" />
              <mxPoint x="410" y="365" />
            </Array>
          </mxGeometry>
        </mxCell>
        <mxCell id="QZI1ip76G4jCks829j6q-4" value="Quản lý kho" style="rounded=0;whiteSpace=wrap;html=1;" vertex="1" parent="1">
          <mxGeometry x="435" y="285" width="90" height="30" as="geometry" />
        </mxCell>
        <mxCell id="QZI1ip76G4jCks829j6q-58" style="edgeStyle=orthogonalEdgeStyle;rounded=0;orthogonalLoop=1;jettySize=auto;html=1;entryX=0;entryY=0.5;entryDx=0;entryDy=0;" edge="1" parent="1" source="QZI1ip76G4jCks829j6q-5" target="QZI1ip76G4jCks829j6q-54">
          <mxGeometry relative="1" as="geometry">
            <Array as="points">
              <mxPoint x="610" y="300" />
              <mxPoint x="610" y="495" />
            </Array>
          </mxGeometry>
        </mxCell>
        <mxCell id="QZI1ip76G4jCks829j6q-59" style="edgeStyle=orthogonalEdgeStyle;rounded=0;orthogonalLoop=1;jettySize=auto;html=1;entryX=0;entryY=0.5;entryDx=0;entryDy=0;" edge="1" parent="1" source="QZI1ip76G4jCks829j6q-5" target="QZI1ip76G4jCks829j6q-53">
          <mxGeometry relative="1" as="geometry">
            <Array as="points">
              <mxPoint x="610" y="300" />
              <mxPoint x="610" y="435" />
            </Array>
          </mxGeometry>
        </mxCell>
        <mxCell id="QZI1ip76G4jCks829j6q-60" style="edgeStyle=orthogonalEdgeStyle;rounded=0;orthogonalLoop=1;jettySize=auto;html=1;entryX=0;entryY=0.5;entryDx=0;entryDy=0;" edge="1" parent="1" source="QZI1ip76G4jCks829j6q-5" target="QZI1ip76G4jCks829j6q-52">
          <mxGeometry relative="1" as="geometry">
            <Array as="points">
              <mxPoint x="610" y="300" />
              <mxPoint x="610" y="365" />
            </Array>
          </mxGeometry>
        </mxCell>
        <mxCell id="QZI1ip76G4jCks829j6q-5" value="Quản lý hàng" style="rounded=0;whiteSpace=wrap;html=1;" vertex="1" parent="1">
          <mxGeometry x="640" y="285" width="90" height="30" as="geometry" />
        </mxCell>
        <mxCell id="QZI1ip76G4jCks829j6q-12" value="Cập nhật thông tin" style="rounded=0;whiteSpace=wrap;html=1;" vertex="1" parent="1">
          <mxGeometry x="70" y="340" width="120" height="30" as="geometry" />
        </mxCell>
        <mxCell id="QZI1ip76G4jCks829j6q-14" value="Đánh giá nhân viên" style="rounded=0;whiteSpace=wrap;html=1;" vertex="1" parent="1">
          <mxGeometry x="70" y="535" width="130" height="30" as="geometry" />
        </mxCell>
        <mxCell id="QZI1ip76G4jCks829j6q-15" value="Trả lương" style="rounded=0;whiteSpace=wrap;html=1;" vertex="1" parent="1">
          <mxGeometry x="70" y="480" width="80" height="30" as="geometry" />
        </mxCell>
        <mxCell id="QZI1ip76G4jCks829j6q-21" value="Chấm công" style="rounded=0;whiteSpace=wrap;html=1;" vertex="1" parent="1">
          <mxGeometry x="70" y="420" width="80" height="30" as="geometry" />
        </mxCell>
        <mxCell id="QZI1ip76G4jCks829j6q-33" value="Xử lý yêu cầu món ăn" style="rounded=0;whiteSpace=wrap;html=1;" vertex="1" parent="1">
          <mxGeometry x="240" y="350" width="140" height="30" as="geometry" />
        </mxCell>
        <mxCell id="QZI1ip76G4jCks829j6q-34" value="Thanh toán" style="rounded=0;whiteSpace=wrap;html=1;" vertex="1" parent="1">
          <mxGeometry x="240" y="420" width="80" height="30" as="geometry" />
        </mxCell>
        <mxCell id="QZI1ip76G4jCks829j6q-35" value="Khảo sát khách hàng" style="rounded=0;whiteSpace=wrap;html=1;" vertex="1" parent="1">
          <mxGeometry x="240" y="480" width="140" height="30" as="geometry" />
        </mxCell>
        <mxCell id="QZI1ip76G4jCks829j6q-39" value="Quản lý NCC" style="rounded=0;whiteSpace=wrap;html=1;" vertex="1" parent="1">
          <mxGeometry x="435" y="350" width="90" height="30" as="geometry" />
        </mxCell>
        <mxCell id="QZI1ip76G4jCks829j6q-40" value="Nhập nguyên liệu" style="rounded=0;whiteSpace=wrap;html=1;" vertex="1" parent="1">
          <mxGeometry x="435" y="420" width="120" height="30" as="geometry" />
        </mxCell>
        <mxCell id="QZI1ip76G4jCks829j6q-41" value="Xuất nguyên liệu" style="rounded=0;whiteSpace=wrap;html=1;" vertex="1" parent="1">
          <mxGeometry x="435" y="480" width="110" height="30" as="geometry" />
        </mxCell>
        <mxCell id="QZI1ip76G4jCks829j6q-42" value="Thống kê nguyên liệu" style="rounded=0;whiteSpace=wrap;html=1;" vertex="1" parent="1">
          <mxGeometry x="435" y="530" width="140" height="30" as="geometry" />
        </mxCell>
        <mxCell id="QZI1ip76G4jCks829j6q-63" style="edgeStyle=orthogonalEdgeStyle;rounded=0;orthogonalLoop=1;jettySize=auto;html=1;entryX=0;entryY=0.5;entryDx=0;entryDy=0;" edge="1" parent="1" source="QZI1ip76G4jCks829j6q-44" target="QZI1ip76G4jCks829j6q-62">
          <mxGeometry relative="1" as="geometry">
            <Array as="points">
              <mxPoint x="810" y="300" />
              <mxPoint x="810" y="450" />
            </Array>
          </mxGeometry>
        </mxCell>
        <mxCell id="QZI1ip76G4jCks829j6q-64" style="edgeStyle=orthogonalEdgeStyle;rounded=0;orthogonalLoop=1;jettySize=auto;html=1;entryX=0;entryY=0.75;entryDx=0;entryDy=0;" edge="1" parent="1" source="QZI1ip76G4jCks829j6q-44" target="QZI1ip76G4jCks829j6q-61">
          <mxGeometry relative="1" as="geometry">
            <Array as="points">
              <mxPoint x="810" y="300" />
              <mxPoint x="810" y="373" />
            </Array>
          </mxGeometry>
        </mxCell>
        <mxCell id="QZI1ip76G4jCks829j6q-44" value="Báo cáo" style="rounded=0;whiteSpace=wrap;html=1;" vertex="1" parent="1">
          <mxGeometry x="850" y="285" width="70" height="30" as="geometry" />
        </mxCell>
        <mxCell id="QZI1ip76G4jCks829j6q-52" value="Cập nhật mặt hàng" style="rounded=0;whiteSpace=wrap;html=1;" vertex="1" parent="1">
          <mxGeometry x="640" y="350" width="130" height="30" as="geometry" />
        </mxCell>
        <mxCell id="QZI1ip76G4jCks829j6q-53" value="Xuất Menu" style="rounded=0;whiteSpace=wrap;html=1;" vertex="1" parent="1">
          <mxGeometry x="640" y="420" width="80" height="30" as="geometry" />
        </mxCell>
        <mxCell id="QZI1ip76G4jCks829j6q-54" value="Chế biến" style="rounded=0;whiteSpace=wrap;html=1;" vertex="1" parent="1">
          <mxGeometry x="640" y="480" width="70" height="30" as="geometry" />
        </mxCell>
        <mxCell id="QZI1ip76G4jCks829j6q-61" value="Báo cáo doanh thu" style="rounded=0;whiteSpace=wrap;html=1;" vertex="1" parent="1">
          <mxGeometry x="850" y="350" width="120" height="30" as="geometry" />
        </mxCell>
        <mxCell id="QZI1ip76G4jCks829j6q-62" value="Báo cáo chất lượng phục vụ" style="rounded=0;whiteSpace=wrap;html=1;" vertex="1" parent="1">
          <mxGeometry x="850" y="420" width="120" height="60" as="geometry" />
        </mxCell>
      </root>
    </mxGraphModel>
  </diagram>
</mxfile>
